#!OML:ASF F:\VICON\USERDATA\INSTALL\rory3\rory3.ASF
:FULLY-SPECIFIED
:DEGREES
140
root 0.787744 18.1191 -4.07352 -2.78924 0.568796 2.1421
lowerback 10.7596 -0.921049 -3.36339
upperback 0.774815 -1.57185 1.05554
thorax -5.10528 -0.688985 3.23657
lowerneck -16.0168 -3.15409 -1.93973
upperneck 22.9031 -3.83946 -0.305509
head 9.96014 -1.98386 -0.289896
rclavicle 2.11954e-014 1.66979e-014
rhumerus -30.3285 -23.3151 -77.3942
rradius 23.2809
rwrist 6.82466
rhand -19.5469 25.2378
rfingers 7.12502
rthumb 6.77724 -4.63375
lclavicle 2.11954e-014 1.66979e-014
lhumerus -24.3791 0.31221 81.3536
lradius 26.2209
lwrist 4.58322
lhand -26.4213 30.2241
lfingers 7.12502
lthumb 0.138825 60.2038
rfemur -31.1764 0.0572398 19.4307
rtibia 46.459
rfoot -7.00857 -10.6313
rtoes 7.07256
lfemur 3.78607 -1.10607 -27.507
ltibia 22.2044
lfoot -13.7874 0.812041
ltoes -3.45385
141
root 0.778201 18.1584 -3.90519 -2.65966 0.70975 1.9538
lowerback 10.5402 -1.01926 -3.21611
upperback 0.795205 -1.67291 1.1446
thorax -4.95463 -0.745021 3.25428
lowerneck -15.7713 -3.12983 -2.05753
upperneck 22.7795 -3.82554 -0.120869
head 9.87632 -1.96722 -0.198313
rclavicle -2.16178e-015 5.96354e-015
rhumerus -30.7436 -23.0342 -77.3182
rradius 23.4255
rwrist 6.46177
rhand -19.162 27.6178
rfingers 7.12502
rthumb 7.14877 -2.24146
lclavicle -2.16178e-015 5.96354e-015
lhumerus -23.9623 -0.153768 81.383
lradius 26.4899
lwrist 4.72631
lhand -25.2506 32.5402
lfingers 7.12502
lthumb 1.26953 62.5161
rfemur -31.2924 0.798481 19.3288
rtibia 43.0285
rfoot -4.85888 -11.0484
rtoes 6.30901
lfemur 4.89224 -1.11997 -27.2457
ltibia 21
lfoot -13.6086 0.656097
ltoes -3.94966
142
root 0.766667 18.1806 -3.73914 -2.34998 0.943752 2.1384
lowerback 10.2879 -1.04961 -3.47735
upperback 0.757761 -1.73689 1.12963
thorax -4.84072 -0.773393 3.38803
lowerneck -15.6643 -3.17765 -1.93679
upperneck 22.5926 -3.9181 -0.148867
head 9.78699 -2.00341 -0.236169
rclavicle -6.43565e-015 1.47101e-014
rhumerus -31.1834 -23.2206 -77.0795
rradius 23.6443
rwrist 6.48766
rhand -18.4962 27.4615
rfingers 7.12502
rthumb 7.79144 -2.37493
lclavicle -6.43565e-015 1.47101e-014
lhumerus -23.4353 -0.873587 81.4912
lradius 26.6678
lwrist 4.98521
lhand -25.4921 32.4105
lfingers 7.12502
lthumb 1.03625 62.3877
rfemur -31.4921 1.67035 18.6659
rtibia 39.5879
rfoot -4.87893 -12.0618
rtoes 5.64016
lfemur 5.66788 -1.11826 -27.3686
ltibia 19.9499
lfoot -13.3732 0.41654
ltoes -4.60295
143
root 0.748587 18.135 -3.58188 -2.07255 1.24047 2.1159
lowerback 10.206 -1.14635 -3.61654
upperback 0.690377 -1.87491 1.21935
thorax -4.84681 -0.836578 3.57859
lowerneck -15.9066 -3.18393 -1.86433
upperneck 22.7128 -3.94248 -0.147659
head 9.87387 -2.00701 -0.256717
rclavicle 1.3418e-014 -3.97569e-016
rhumerus -31.4422 -23.4082 -76.8425
rradius 23.6235
rwrist 6.71105
rhand -18.4627 24.4611
rfingers 7.12502
rthumb 7.82377 -5.37409
lclavicle 1.3418e-014 -3.97569e-016
lhumerus -23.1085 -1.42891 81.5883
lradius 27.0087
lwrist 5.36732
lhand -26.6225 31.1711
lfingers 7.12502
lthumb -0.055519 61.1509
rfemur -30.6562 2.34933 18.354
rtibia 36.3548
rfoot -6.46134 -12.5768
rtoes 9.64027
lfemur 6.24441 -0.984641 -27.1927
ltibia 19.3396
lfoot -13.3343 0.126954
ltoes -5.22467
144
root 0.731564 18.1141 -3.41829 -1.88284 1.50547 2.23678
lowerback 10.1854 -1.23301 -3.8692
upperback 0.57804 -2.01772 1.26214
thorax -4.93076 -0.897163 3.7878
lowerneck -15.95 -3.18098 -1.98753
upperneck 22.8841 -3.95182 0.0302421
head 9.95024 -2.00076 -0.178208
rclavicle 2.24378e-014 -7.95139e-016
rhumerus -31.7565 -23.3962 -76.6232
rradius 23.5192
rwrist 6.75349
rhand -18.597 22.5991
rfingers 7.12502
rthumb 7.69409 -7.2409
lclavicle 2.24378e-014 -7.95139e-016
lhumerus -23.1788 -1.83565 81.6582
lradius 27.6133
lwrist 5.75135
lhand -27.0054 30.4208
lfingers 7.12502
lthumb -0.425279 60.4002
rfemur -30.2713 3.05268 17.8702
rtibia 33.2344
rfoot -6.68523 -13.0232
rtoes 6.34554
lfemur 6.74198 -0.838445 -27.1674
ltibia 19.005
lfoot -13.3856 -0.227221
ltoes -4.02524
145
root 0.71636 18.0971 -3.24336 -1.71051 1.75586 2.3724
lowerback 10.0818 -1.33986 -4.04349
upperback 0.514665 -2.17753 1.24809
thorax -4.91877 -0.971643 3.89083
lowerneck -15.9307 -3.1944 -2.04344
upperneck 22.9191 -3.97816 0.113822
head 9.96262 -2.00813 -0.143302
rclavicle 2.09718e-014 -7.95139e-016
rhumerus -31.9646 -23.8783 -76.2631
rradius 23.0143
rwrist 7.1161
rhand -18.8466 22.9913
rfingers 7.12502
rthumb 7.45319 -6.8574
lclavicle 2.09718e-014 -7.95139e-016
lhumerus -23.1188 -2.26408 81.652
lradius 28.1351
lwrist 5.9372
lhand -26.9214 28.9961
lfingers 7.12502
lthumb -0.344216 58.9756
rfemur -30.0701 3.65697 17.4064
rtibia 30.2723
rfoot -6.75989 -13.7458
rtoes 7.10644
lfemur 7.27833 -0.815311 -27.1958
ltibia 18.827
lfoot -13.6765 -0.446564
ltoes -2.72534
146
root 0.700837 18.0815 -3.07189 -1.50747 2.048 2.56045
lowerback 9.89841 -1.47032 -4.32747
upperback 0.514901 -2.37553 1.2519
thorax -4.78549 -1.06716 4.07407
lowerneck -15.9191 -3.19756 -2.0314
upperneck 22.9056 -3.97321 0.0630781
head 9.95411 -2.0109 -0.162023
rclavicle 1.44119e-014 -5.96354e-015
rhumerus -32.1257 -24.1009 -76.0149
rradius 22.7597
rwrist 7.29929
rhand -18.8319 23.2544
rfingers 7.12502
rthumb 7.46741 -6.59381
lclavicle 1.44119e-014 -5.96354e-015
lhumerus -22.8282 -2.79305 81.6462
lradius 28.7067
lwrist 6.24574
lhand -26.0991 28.5879
lfingers 7.12502
lthumb 0.450039 58.5672
rfemur -29.8019 4.24142 16.8083
rtibia 27.2194
rfoot -7.07451 -14.5087
rtoes 4.09924
lfemur 8.04544 -0.915578 -27.2969
ltibia 18.2031
lfoot -13.6819 -0.666491
ltoes -2.44377
